<svg enable-background="new 0 0 512 512" viewBox="0 0 512 512" xmlns="http://www.w3.org/2000/svg" xmlns:xlink="http://www.w3.org/1999/xlink"><radialGradient id="a" cx="256" cy="258" gradientTransform="matrix(1 0 0 -1 0 514)" gradientUnits="userSpaceOnUse" r="256"><stop offset="0" stop-color="#04be9e"/><stop offset="1" stop-color="#00a185"/></radialGradient><circle cx="256" cy="256" fill="url(#a)" r="256"/><path d="m91.597 154.942c-1.791 1.791-1.791 4.723 0 6.515l269.071 269.071c1.792 1.791 4.724 1.791 6.516 0l68.407-68.408-275.587-275.587z" fill="#bdc3c7"/><path d="m447.969 343.227-269.071-269.072c-1.791-1.791-4.723-1.791-6.516 0l-12.379 12.378 275.588 275.587 12.378-12.379c1.793-1.791 1.793-4.722 0-6.514z" fill="#ecf0f1"/><path d="m146.648 125.298c-1.799 1.799-1.799 4.717.002 6.516 1.797 1.799 4.715 1.799 6.514 0l26.061-26.061-6.515-6.515z" fill="#94a5a6"/><path d="m172.729 90.065h22.112v9.212h-22.112z" fill="#bdc3c7" transform="matrix(.7071 -.7071 .7071 .7071 -13.1129 157.684)"/><path d="m227.436 206.086c-1.799 1.798-1.799 4.716 0 6.514 1.799 1.799 4.717 1.8 6.516 0l26.061-26.06-6.516-6.516z" fill="#94a5a6"/><path d="m253.496 170.865h22.113v9.213h-22.113z" fill="#bdc3c7" transform="matrix(.7071 -.7072 .7072 .7071 -46.5867 238.4836)"/><path d="m308.873 287.522c-1.799 1.799-1.799 4.716 0 6.516 1.799 1.799 4.717 1.799 6.516 0l26.061-26.061-6.516-6.515z" fill="#94a5a6"/><path d="m334.96 252.308h22.113v9.214h-22.113z" fill="#bdc3c7" transform="matrix(.7071 -.7071 .7071 .7071 -80.3206 319.9192)"/><path d="m179.875 132.465c-1.799 1.8-1.799 4.716 0 6.515 1.8 1.8 4.717 1.8 6.516.001l13.03-13.03-6.516-6.516z" fill="#94a5a6"/><path d="m192.927 110.266h22.114v9.215h-22.114z" fill="#bdc3c7" transform="matrix(.7071 -.7071 .7071 .7071 -21.4827 177.8839)"/><path d="m200.072 152.661c-1.799 1.799-1.799 4.717 0 6.516s4.717 1.799 6.516 0l13.029-13.03-6.516-6.515z" fill="#94a5a6"/><path d="m213.126 130.471h22.113v9.214h-22.113z" fill="#bdc3c7" transform="matrix(.7071 -.7071 .7071 .7071 -29.853 198.0841)"/><path d="m220.27 172.858c-1.799 1.799-1.799 4.717 0 6.516s4.716 1.799 6.514 0l13.031-13.03-6.516-6.516z" fill="#94a5a6"/><path d="m233.321 150.661h22.114v9.214h-22.114z" fill="#bdc3c7" transform="matrix(.7071 -.7071 .7071 .7071 -38.2142 218.278)"/><path d="m261.313 213.903c-1.8 1.799-1.8 4.716 0 6.515 1.799 1.799 4.716 1.799 6.515 0l13.031-13.03-6.516-6.515z" fill="#94a5a6"/><path d="m274.367 191.705h22.112v9.214h-22.112z" fill="#bdc3c7" transform="matrix(.7071 -.7071 .7071 .7071 -55.2147 259.3229)"/><path d="m281.511 234.1c-1.799 1.799-1.799 4.716 0 6.515s4.716 1.799 6.515 0l13.03-13.028-6.515-6.517z" fill="#94a5a6"/><path d="m294.537 211.91h22.115v9.214h-22.115z" fill="#bdc3c7" transform="matrix(.7071 -.7072 .7072 .7071 -63.5894 279.5303)"/><path d="m301.707 254.296c-1.799 1.8-1.799 4.717 0 6.516s4.717 1.799 6.516 0l13.029-13.03-6.515-6.516z" fill="#94a5a6"/><path d="m314.762 232.111h22.113v9.214h-22.113z" fill="#bdc3c7" transform="matrix(.7071 -.7071 .7071 .7071 -71.9547 299.7216)"/><path d="m342.752 295.341c-1.799 1.799-1.799 4.716 0 6.516 1.799 1.799 4.717 1.799 6.516 0l13.029-13.03-6.516-6.516z" fill="#94a5a6"/><path d="m355.804 273.143h22.114v9.214h-22.114z" fill="#bdc3c7" transform="matrix(.7071 -.7071 .7071 .7071 -88.9477 340.761)"/><path d="m362.949 315.538c-1.799 1.799-1.799 4.716-.002 6.514 1.801 1.8 4.718 1.8 6.517 0l13.03-13.029-6.516-6.515z" fill="#94a5a6"/><path d="m376.005 293.355h22.113v9.214h-22.113z" fill="#bdc3c7" transform="matrix(.7071 -.7071 .7071 .7071 -97.3231 360.9648)"/><path d="m383.145 335.734c-1.799 1.799-1.799 4.716.002 6.515 1.797 1.799 4.715 1.799 6.514 0l13.029-13.029-6.514-6.516z" fill="#94a5a6"/><path d="m396.198 313.536h22.114v9.214h-22.114z" fill="#bdc3c7" transform="matrix(.7071 -.7071 .7071 .7071 -105.6789 381.1545)"/><path d="m390.311 368.96c-1.799 1.8-1.799 4.717 0 6.516 1.801 1.8 4.717 1.8 6.517.001l26.06-26.062-6.515-6.515z" fill="#94a5a6"/><path d="m416.399 333.749h22.112v9.214h-22.112z" fill="#bdc3c7" transform="matrix(.7071 -.7071 .7071 .7071 -114.0552 401.3582)"/><path d="m81.604 220.859-23.578-7.312c-.605-.189-.959-.075-1.283.25l15.961 15.962z" fill="#2a3e4f"/><path d="m103.262 260.318s.159-.153.232-.227c13.668-13.669 15.705-22.782 15.957-25.984-.459-.896-1.378-1.771-2.264-2.047l-35.584-11.201-8.9 8.899z" fill="#f89b36"/><path d="m56.742 213.797c-.326.326-.416.655-.227 1.259l7.336 23.555 8.852-8.852z" fill="#32495d"/><path d="m72.703 229.759-8.852 8.852 11.197 35.588c.275.872 1.076 1.745 1.959 2.198 3.215-.332 12.535-2.435 26.254-16.078z" fill="#f4c342"/><path d="m77.034 276.448c-.813.084-1.241.051-1.241.051l189.588 189.588s10.482.711 27.471-16.182l-167.381-167.379-22.209-22.208c-13.719 13.644-23.012 15.797-26.228 16.13z" fill="#1c99d8"/><path d="m119.445 234.114c-.253 3.201-2.289 12.314-15.957 25.982-.073.074-.225.223-.225.223l22.207 22.207 167.381 167.379s.145-.141.219-.215c17.264-17.264 15.961-27.254 15.961-27.254l-189.588-189.587s.069.423.002 1.265z" fill="#1380b6"/><path d="m393.018 237.653c-.896.896-2.362.896-3.258 0l-117.922-117.922c-.896-.896-.896-2.362 0-3.258l61.892-61.893c.896-.896 2.361-.896 3.258 0l117.922 117.923c.896.896.896 2.361 0 3.258z" fill="#ecf0f1"/><path d="m393.018 237.653c-.896.896-2.362.896-3.258 0l-117.922-117.922c-.896-.896-.896-2.362 0-3.258l42.348-42.348c.896-.896 2.361-.896 3.258 0l117.922 117.922c.896.896.896 2.362 0 3.258z" fill="#bdc3c7"/><path d="m372.168 222.018c-.895.896-2.359.896-3.256 0l-78.832-78.832c-.896-.896-.896-2.362 0-3.258l67.104-67.104c.896-.896 2.362-.896 3.257 0l78.834 78.832c.895.896.895 2.361-.002 3.257z" fill="#ee483c"/><path d="m372.168 222.018c-.895.896-2.359.896-3.256 0l-78.832-78.832c-.896-.896-.896-2.362 0-3.258l44.953-44.954c.896-.896 2.363-.896 3.258 0l78.832 78.832c.896.896.895 2.361 0 3.258z" fill="#c6362b"/></svg>